<svg width="281" height="65" viewBox="0 0 281 65" fill="none" xmlns="http://www.w3.org/2000/svg">
<rect width="281" height="65" fill="#509A7F"/>
<path d="M80.5715 31.3837C80.5235 26.3935 84.9455 23.9657 85.1478 23.8527C82.6433 20.4418 78.7616 19.9757 77.3975 19.9386C74.1373 19.6181 70.9749 21.7609 69.3141 21.7609C67.6202 21.7609 65.0627 19.9695 62.3064 20.0222C58.7594 20.0733 55.4412 21.9916 53.6213 24.9706C49.8656 31.0446 52.6667 39.9706 56.265 44.8803C58.065 47.2848 60.1683 49.9696 62.9213 49.8751C65.6147 49.7714 66.6207 48.2711 69.871 48.2711C73.0914 48.2711 74.0362 49.8751 76.8439 49.8148C79.7345 49.7714 81.5544 47.3994 83.2914 44.9732C85.3715 42.2172 86.2069 39.503 86.24 39.3637C86.1721 39.342 80.6262 37.3648 80.5715 31.3837Z" fill="white"/>
<path d="M75.3279 16.7087C76.9042 15.0164 77.9828 12.7141 77.6834 10.3777C75.4019 10.4644 72.5486 11.7325 70.9056 13.3876C69.4519 14.8461 68.1533 17.2367 68.4888 19.4848C71.0517 19.649 73.6831 18.3747 75.3279 16.7087Z" fill="white"/>
<path d="M118.579 49.5296H114.722L112.609 43.4773H105.266L103.253 49.5296H99.4979L106.774 28.9247H111.268L118.579 49.5296ZM111.972 40.938L110.062 35.5576C109.86 35.008 109.481 33.7136 108.922 31.676H108.854C108.632 32.5524 108.273 33.8468 107.781 35.5576L105.904 40.938H111.972Z" fill="white"/>
<path d="M136.307 41.9181C136.307 44.4449 135.549 46.4422 134.034 47.9085C132.677 49.2137 130.992 49.8655 128.981 49.8655C126.81 49.8655 125.25 49.1626 124.301 47.7567H124.232V55.5834H120.57V39.5631C120.57 37.9745 120.524 36.3441 120.434 34.672H123.655L123.859 37.0269H123.928C125.149 35.2526 127.002 34.3669 129.489 34.3669C131.434 34.3669 133.057 35.059 134.356 36.4448C135.657 37.8321 136.307 39.656 136.307 41.9181ZM132.576 42.0388C132.576 40.5927 132.215 39.4005 131.491 38.4622C130.699 37.4837 129.635 36.9944 128.303 36.9944C127.399 36.9944 126.578 37.2669 125.845 37.8042C125.11 38.3461 124.629 39.0537 124.404 39.93C124.29 40.3388 124.234 40.6732 124.234 40.9364V43.4137C124.234 44.4944 124.601 45.4064 125.336 46.1511C126.071 46.8959 127.026 47.2675 128.201 47.2675C129.581 47.2675 130.654 46.7875 131.422 45.8306C132.191 44.8722 132.576 43.6088 132.576 42.0388Z" fill="white"/>
<path d="M154.068 41.9181C154.068 44.4449 153.31 46.4422 151.793 47.9085C150.438 49.2137 148.753 49.8655 146.742 49.8655C144.571 49.8655 143.011 49.1626 142.063 47.7567H141.994V55.5834H138.332V39.5631C138.332 37.9745 138.286 36.3441 138.197 34.672H141.417L141.622 37.0269H141.69C142.91 35.2526 144.763 34.3669 147.252 34.3669C149.195 34.3669 150.818 35.059 152.12 36.4448C153.417 37.8321 154.068 39.656 154.068 41.9181ZM150.337 42.0388C150.337 40.5927 149.974 39.4005 149.25 38.4622C148.458 37.4837 147.398 36.9944 146.063 36.9944C145.158 36.9944 144.339 37.2669 143.604 37.8042C142.869 38.3461 142.389 39.0537 142.164 39.93C142.053 40.3388 141.994 40.6732 141.994 40.9364V43.4137C141.994 44.4944 142.362 45.4064 143.094 46.1511C143.829 46.8943 144.784 47.2675 145.962 47.2675C147.341 47.2675 148.415 46.7875 149.183 45.8306C149.952 44.8722 150.337 43.6088 150.337 42.0388Z" fill="white"/>
<path d="M173.925 43.7513C173.925 45.504 173.245 46.93 171.879 48.0309C170.379 49.2339 168.29 49.8347 165.606 49.8347C163.128 49.8347 161.141 49.4073 159.637 48.5511L160.492 45.7998C162.112 46.6761 163.889 47.1158 165.826 47.1158C167.215 47.1158 168.297 46.834 169.074 46.2735C169.848 45.713 170.233 44.9606 170.233 44.0223C170.233 43.1862 169.915 42.4817 169.276 41.9104C168.641 41.3391 167.58 40.808 166.099 40.3172C162.067 38.9717 160.053 37.0007 160.053 34.4088C160.053 32.715 160.759 31.3262 162.172 30.2454C163.581 29.1632 165.461 28.6228 167.811 28.6228C169.906 28.6228 171.647 28.9495 173.037 29.6013L172.115 32.2923C170.817 31.6606 169.349 31.3447 167.707 31.3447C166.409 31.3447 165.395 31.6312 164.668 32.2009C164.054 32.7103 163.746 33.3312 163.746 34.0667C163.746 34.8811 164.097 35.5546 164.803 36.0841C165.417 36.5734 166.533 37.1029 168.153 37.6742C170.135 38.388 171.59 39.2225 172.526 40.1794C173.459 41.1331 173.925 42.3269 173.925 43.7513Z" fill="white"/>
<path d="M185.268 37.1493H181.083V44.3629C181.083 46.1976 181.82 47.1142 183.298 47.1142C183.977 47.1142 184.539 47.0631 184.984 46.9609L185.09 49.4676C184.342 49.7107 183.357 49.833 182.137 49.833C180.638 49.833 179.466 49.4351 178.62 48.6408C177.778 47.845 177.354 46.5104 177.354 44.6354V37.1462H174.861V34.6689H177.354V31.9485L181.083 30.97V34.6689H185.268V37.1493Z" fill="white"/>
<path d="M202.33 41.9786C202.33 44.2624 201.606 46.1374 200.161 47.6036C198.646 49.1132 196.635 49.8657 194.128 49.8657C191.712 49.8657 189.789 49.1426 188.354 47.6965C186.92 46.2504 186.203 44.4249 186.203 42.2248C186.203 39.9224 186.941 38.0366 188.421 36.5704C189.899 35.1026 191.892 34.3687 194.399 34.3687C196.815 34.3687 198.759 35.0917 200.226 36.5394C201.63 37.9437 202.33 39.7568 202.33 41.9786ZM198.534 42.0854C198.534 40.7152 198.21 39.54 197.553 38.5599C196.786 37.3739 195.69 36.7825 194.269 36.7825C192.798 36.7825 191.681 37.3755 190.914 38.5599C190.257 39.5416 189.933 40.7353 189.933 42.1474C189.933 43.5176 190.257 44.6928 190.914 45.6713C191.705 46.8573 192.81 47.4488 194.236 47.4488C195.633 47.4488 196.729 46.8449 197.52 45.6404C198.195 44.6417 198.534 43.4541 198.534 42.0854Z" fill="white"/>
<path d="M213.481 37.575C213.1 37.5147 212.694 37.4837 212.268 37.4837C210.915 37.4837 209.869 37.9219 209.132 38.7998C208.492 39.5739 208.171 40.5524 208.171 41.7338V49.5295H204.326L204.362 39.351C204.362 37.6385 204.313 36.0794 204.217 34.6735H207.568L207.709 37.5162H207.815C208.221 36.5392 208.862 35.7527 209.739 35.1628C210.596 34.6317 211.521 34.3669 212.519 34.3669C212.875 34.3669 213.196 34.3886 213.481 34.4273V37.575Z" fill="white"/>
<path d="M228.824 41.3979C228.824 41.9893 228.781 42.4879 228.69 42.8951H217.646C217.689 44.3629 218.222 45.4854 219.248 46.2596C220.179 46.9516 221.382 47.2985 222.86 47.2985C224.496 47.2985 225.987 47.0647 227.329 46.5955L227.906 48.887C226.338 49.5002 224.487 49.8052 222.351 49.8052C219.782 49.8052 217.765 49.127 216.297 47.7723C214.833 46.4175 214.099 44.5982 214.099 42.316C214.099 40.0756 214.781 38.2099 216.147 36.722C217.577 35.1334 219.509 34.3391 221.94 34.3391C224.328 34.3391 226.136 35.1334 227.364 36.722C228.336 37.9838 228.824 39.5445 228.824 41.3979ZM225.314 40.5416C225.338 39.5631 225.098 38.7177 224.599 38.004C223.962 37.0858 222.983 36.6275 221.665 36.6275C220.462 36.6275 219.483 37.075 218.735 37.973C218.122 38.6868 217.758 39.543 217.646 40.5401H225.314V40.5416Z" fill="white"/>
<path d="M111.92 23.8894H110.115V21.3282H102.903V23.8894H101.068L101.008 19.883H101.888C102.324 19.4823 102.673 18.9004 102.933 18.1373C103.194 17.3694 103.362 16.5013 103.437 15.5331L103.723 10.9114H110.627V19.883H112.018L111.92 23.8894ZM104.039 19.883H108.732V12.3709H105.535L105.355 15.3042C105.22 17.2645 104.781 18.7907 104.039 19.883Z" fill="white"/>
<path d="M113.698 17.3861C113.698 16.6277 113.856 15.9457 114.172 15.3399C114.488 14.7294 114.932 14.262 115.503 13.9377C116.075 13.6086 116.731 13.444 117.474 13.444C118.572 13.444 119.461 13.7803 120.143 14.4528C120.83 15.1253 121.201 16.0172 121.256 17.1285L121.264 17.5363C121.264 18.2995 121.108 18.9815 120.798 19.5825C120.492 20.1835 120.051 20.6485 119.474 20.9776C118.902 21.3067 118.241 21.4712 117.489 21.4712C116.34 21.4712 115.42 21.1088 114.729 20.3838C114.042 19.654 113.698 18.6834 113.698 17.4719V17.3861ZM115.526 17.5363C115.526 18.3329 115.699 18.9577 116.045 19.4108C116.391 19.8591 116.872 20.0833 117.489 20.0833C118.105 20.0833 118.584 19.8544 118.925 19.3965C119.271 18.9386 119.444 18.2685 119.444 17.3861C119.444 16.6039 119.266 15.9838 118.91 15.526C118.559 15.0681 118.08 14.8391 117.474 14.8391C116.877 14.8391 116.403 15.0657 116.052 15.5188C115.701 15.9671 115.526 16.6397 115.526 17.5363Z" fill="white"/>
<path d="M126.922 20.0833C127.379 20.0833 127.757 19.9569 128.058 19.7041C128.359 19.4513 128.519 19.1389 128.539 18.7669H130.261C130.241 19.2486 130.083 19.6993 129.788 20.1191C129.492 20.534 129.091 20.8631 128.584 21.1064C128.078 21.3496 127.531 21.4712 126.945 21.4712C125.807 21.4712 124.904 21.1207 124.237 20.4196C123.571 19.7184 123.237 18.7502 123.237 17.5149V17.336C123.237 16.1579 123.568 15.2159 124.23 14.51C124.892 13.7994 125.794 13.444 126.937 13.444C127.905 13.444 128.692 13.7135 129.299 14.2525C129.91 14.7867 130.231 15.4902 130.261 16.363H128.539C128.519 15.9194 128.359 15.5546 128.058 15.2684C127.762 14.9822 127.384 14.8391 126.922 14.8391C126.331 14.8391 125.874 15.0442 125.554 15.4544C125.233 15.8598 125.07 16.4775 125.065 17.3074V17.5864C125.065 18.4259 125.223 19.0531 125.539 19.468C125.859 19.8782 126.321 20.0833 126.922 20.0833Z" fill="white"/>
<path d="M138.815 14.9679H136.176V21.3282H134.348V14.9679H131.738V13.5871H138.815V14.9679Z" fill="white"/>
<path d="M143.744 18.8384L145.399 13.5871H147.347L144.113 22.5015C143.616 23.8036 142.774 24.4546 141.586 24.4546C141.32 24.4546 141.027 24.4117 140.706 24.3258V22.9808L141.052 23.0023C141.513 23.0023 141.859 22.9212 142.09 22.759C142.325 22.6016 142.511 22.3345 142.646 21.9577L142.909 21.2924L140.052 13.5871H142.022L143.744 18.8384Z" fill="white"/>
<path d="M156.073 21.3282H154.246V14.9894H151.072V21.3282H149.245V13.5871H156.073V21.3282Z" fill="white"/>
<path d="M165.68 21.3282H163.853V18.2017H160.686V21.3282H158.859V13.5871H160.686V16.8137H163.853V13.5871H165.68V21.3282Z" fill="white"/>
<path d="M168.06 17.3861C168.06 16.6277 168.218 15.9457 168.533 15.3399C168.849 14.7294 169.293 14.262 169.865 13.9377C170.436 13.6086 171.093 13.444 171.835 13.444C172.933 13.444 173.823 13.7803 174.505 14.4528C175.192 15.1253 175.563 16.0172 175.618 17.1285L175.625 17.5363C175.625 18.2995 175.47 18.9815 175.159 19.5825C174.853 20.1835 174.412 20.6485 173.835 20.9776C173.264 21.3067 172.602 21.4712 171.85 21.4712C170.702 21.4712 169.782 21.1088 169.09 20.3838C168.403 19.654 168.06 18.6834 168.06 17.4719V17.3861ZM169.887 17.5363C169.887 18.3329 170.06 18.9577 170.406 19.4108C170.752 19.8591 171.233 20.0833 171.85 20.0833C172.467 20.0833 172.945 19.8544 173.286 19.3965C173.632 18.9386 173.805 18.2685 173.805 17.3861C173.805 16.6039 173.627 15.9838 173.271 15.526C172.92 15.0681 172.442 14.8391 171.835 14.8391C171.238 14.8391 170.764 15.0657 170.414 15.5188C170.063 15.9671 169.887 16.6397 169.887 17.5363Z" fill="white"/>
<path d="M182.686 21.3282V13.5871H185.987C187.1 13.5871 187.947 13.7731 188.529 14.1452C189.111 14.5124 189.401 15.0418 189.401 15.7334C189.401 16.0912 189.284 16.4131 189.048 16.6993C188.817 16.9807 188.474 17.1977 188.018 17.3503C188.549 17.4553 188.97 17.6675 189.281 17.9871C189.592 18.3066 189.747 18.6834 189.747 19.1175C189.747 19.8377 189.467 20.3862 188.905 20.763C188.348 21.1398 187.546 21.3282 186.498 21.3282H182.686ZM184.513 18.03V19.9545H186.513C187.451 19.9545 187.92 19.635 187.92 18.9958C187.92 18.3519 187.444 18.03 186.491 18.03H184.513ZM184.513 16.7851H186.017C187.055 16.7851 187.574 16.4942 187.574 15.9123C187.574 15.3018 187.083 14.987 186.1 14.9679H184.513V16.7851Z" fill="white"/>
</svg>
