<svg width="280" height="65" viewBox="0 0 280 65" fill="none" xmlns="http://www.w3.org/2000/svg">
<rect width="280" height="65" fill="#F35B5B"/>
<path d="M140.58 34.9992C139.156 35.0055 137.765 35.4098 136.584 36.161C135.403 36.9122 134.484 37.9767 133.944 39.2201C133.403 40.4634 133.265 41.83 133.547 43.1473C133.829 44.4645 134.519 45.6735 135.528 46.6215C136.538 47.5695 137.822 48.2141 139.22 48.474C140.617 48.7338 142.065 48.5973 143.381 48.0816C144.696 47.5658 145.82 46.6941 146.611 45.5762C147.401 44.4584 147.823 43.1447 147.823 41.8008C147.837 40.9013 147.659 40.0084 147.299 39.1751C146.94 38.3419 146.406 37.5855 145.731 36.9509C145.055 36.3163 144.25 35.8164 143.366 35.4811C142.481 35.1458 141.533 34.9819 140.58 34.9992ZM140.58 45.9298C139.704 45.9876 138.83 45.7954 138.071 45.3783C137.312 44.9611 136.704 44.3383 136.326 43.5907C135.947 42.8432 135.816 42.0055 135.949 41.1865C136.081 40.3676 136.472 39.6052 137.07 38.9986C137.668 38.392 138.446 37.9692 139.302 37.7851C140.159 37.601 141.054 37.6642 141.871 37.9664C142.689 38.2687 143.391 38.796 143.887 39.4798C144.383 40.1636 144.649 40.9723 144.651 41.8008C144.679 42.3258 144.594 42.8506 144.403 43.3443C144.212 43.838 143.918 44.2906 143.539 44.6754C143.159 45.0602 142.702 45.3695 142.194 45.5849C141.686 45.8003 141.137 45.9176 140.58 45.9298ZM124.787 34.9992C123.362 35.0024 121.97 35.404 120.787 36.1533C119.603 36.9025 118.682 37.9659 118.139 39.209C117.596 40.4521 117.455 41.8192 117.735 43.1375C118.015 44.4559 118.703 45.6663 119.712 46.6159C120.721 47.5655 122.006 48.2117 123.404 48.4729C124.802 48.734 126.251 48.5984 127.567 48.0831C128.883 47.5679 130.008 46.6961 130.8 45.5779C131.591 44.4598 132.014 43.1454 132.014 41.8008C132.027 40.9013 131.849 40.0084 131.49 39.1751C131.13 38.3419 130.597 37.5855 129.921 36.9509C129.245 36.3163 128.441 35.8164 127.556 35.4811C126.671 35.1458 125.724 34.9819 124.77 34.9992H124.787ZM124.787 45.9298C123.911 45.9909 123.035 45.8016 122.274 45.3866C121.514 44.9715 120.903 44.3501 120.522 43.603C120.14 42.8559 120.006 42.0179 120.137 41.198C120.268 40.3781 120.657 39.6143 121.254 39.0061C121.852 38.3978 122.629 37.9733 123.486 37.7878C124.342 37.6022 125.238 37.6643 126.057 37.9658C126.875 38.2674 127.579 38.7945 128.075 39.4785C128.572 40.1625 128.839 40.9717 128.841 41.8008C128.869 42.3258 128.784 42.8506 128.593 43.3443C128.402 43.838 128.108 44.2906 127.729 44.6754C127.349 45.0602 126.892 45.3695 126.384 45.5849C125.876 45.8003 125.327 45.9176 124.77 45.9298H124.787ZM105.975 37.0957V39.9764H113.303C113.188 41.3332 112.59 42.6135 111.607 43.6092C110.874 44.3138 109.992 44.8657 109.019 45.2296C108.047 45.5934 107.004 45.761 105.958 45.7217C103.798 45.7217 101.727 44.9124 100.2 43.4718C98.6735 42.0312 97.8156 40.0773 97.8156 38.0399C97.8156 36.0026 98.6735 34.0487 100.2 32.6081C101.727 31.1674 103.798 30.3581 105.958 30.3581C108.024 30.3263 110.019 31.0688 111.505 32.4226L113.659 30.3901C112.656 29.4315 111.459 28.6727 110.139 28.1587C108.819 27.6446 107.403 27.3857 105.975 27.3974C104.467 27.342 102.963 27.5744 101.552 28.0807C100.141 28.587 98.8537 29.3567 97.766 30.3437C96.6783 31.3307 95.813 32.5148 95.2219 33.8248C94.6308 35.1349 94.3262 36.5441 94.3262 37.9679C94.3262 39.3917 94.6308 40.8009 95.2219 42.111C95.813 43.4211 96.6783 44.6051 97.766 45.5921C98.8537 46.5791 100.141 47.3488 101.552 47.8551C102.963 48.3614 104.467 48.5938 105.975 48.5384C107.427 48.6003 108.876 48.3681 110.225 47.8574C111.574 47.3467 112.791 46.5694 113.795 45.5777C115.572 43.7356 116.521 41.3139 116.441 38.8241C116.447 38.2175 116.39 37.6119 116.272 37.0157L105.975 37.0957ZM182.836 39.3362C182.393 38.1083 181.566 37.0361 180.463 36.2617C179.361 35.4872 178.035 35.0469 176.661 34.9992C175.733 34.9975 174.815 35.1754 173.962 35.5218C173.11 35.8682 172.343 36.3759 171.707 37.0133C171.071 37.6508 170.58 38.4046 170.265 39.228C169.95 40.0515 169.818 40.9271 169.876 41.8008C169.855 42.6953 170.026 43.5845 170.378 44.4153C170.729 45.2462 171.255 46.0016 171.923 46.6365C172.591 47.2714 173.388 47.7727 174.266 48.1104C175.145 48.4482 176.086 48.6155 177.034 48.6024C178.221 48.6085 179.39 48.3368 180.438 47.8117C181.486 47.2866 182.38 46.5246 183.039 45.5937L180.579 43.9933C180.212 44.5707 179.693 45.0483 179.071 45.3793C178.45 45.7104 177.748 45.8835 177.034 45.8818C176.299 45.9082 175.573 45.7254 174.95 45.3573C174.327 44.9891 173.835 44.4525 173.54 43.8173L183.192 40.0564L182.836 39.3362ZM172.997 41.6088C172.963 41.1138 173.033 40.6173 173.205 40.1483C173.376 39.6794 173.645 39.2475 173.996 38.8779C174.347 38.5083 174.772 38.2084 175.247 37.9958C175.722 37.7832 176.237 37.6622 176.763 37.6398C177.31 37.6058 177.856 37.7242 178.332 37.9803C178.809 38.2363 179.195 38.6188 179.443 39.0802L172.997 41.6088ZM165.16 48.2023H168.332V28.1976H165.16V48.2023ZM159.969 36.5196H159.85C159.372 36.0153 158.787 35.612 158.132 35.3362C157.477 35.0604 156.768 34.9183 156.051 34.9192C154.197 35.004 152.449 35.7585 151.168 37.0262C149.888 38.294 149.174 39.9778 149.174 41.7288C149.174 43.4798 149.888 45.1636 151.168 46.4314C152.449 47.6991 154.197 48.4536 156.051 48.5384C156.769 48.5498 157.482 48.4124 158.139 48.1359C158.795 47.8594 159.379 47.4505 159.85 46.938H159.952V47.9143C159.952 50.5229 158.476 51.9152 156.101 51.9152C155.31 51.8977 154.543 51.6586 153.896 51.2283C153.25 50.7979 152.754 50.1958 152.471 49.4986L149.706 50.5869C150.227 51.7814 151.114 52.8019 152.253 53.5176C153.393 54.2333 154.733 54.6116 156.101 54.6039C159.816 54.6039 162.887 52.5394 162.887 47.5142V35.3993H159.969V36.5196ZM156.339 45.9298C155.245 45.8388 154.226 45.3644 153.484 44.6002C152.743 43.8359 152.331 42.8371 152.331 41.8008C152.331 40.7645 152.743 39.7658 153.484 39.0015C154.226 38.2372 155.245 37.7628 156.339 37.6718C156.881 37.6981 157.413 37.8265 157.902 38.0496C158.391 38.2726 158.828 38.5858 159.187 38.9705C159.546 39.3553 159.819 39.804 159.991 40.29C160.164 40.7761 160.231 41.2898 160.19 41.8008C160.236 42.314 160.171 42.8308 160 43.3198C159.828 43.8088 159.554 44.26 159.192 44.6459C158.831 45.0319 158.39 45.3447 157.896 45.5654C157.403 45.786 156.868 45.91 156.322 45.9298H156.339ZM197.695 28.1976H190.113V48.2023H193.285V40.6165H197.712C198.616 40.6778 199.524 40.5627 200.379 40.2784C201.234 39.9941 202.017 39.5467 202.681 38.9641C203.344 38.3815 203.874 37.6762 204.235 36.8922C204.597 36.1082 204.784 35.2622 204.784 34.4071C204.784 33.5519 204.597 32.706 204.235 31.9219C203.874 31.1379 203.344 30.4326 202.681 29.85C202.017 29.2674 201.234 28.82 200.379 28.5357C199.524 28.2514 198.616 28.1363 197.712 28.1976H197.695ZM197.695 37.7999H193.268V30.9823H197.763C198.728 30.9823 199.654 31.3439 200.336 31.9877C201.019 32.6315 201.402 33.5046 201.402 34.4151C201.402 35.3255 201.019 36.1987 200.336 36.8424C199.654 37.4862 198.728 37.8479 197.763 37.8479L197.695 37.7999ZM217.254 34.9192C216.099 34.8541 214.949 35.1087 213.946 35.6517C212.942 36.1948 212.129 37.0026 211.605 37.9759L214.421 39.0802C214.699 38.5974 215.119 38.2012 215.631 37.9398C216.143 37.6784 216.725 37.5631 217.305 37.6078C217.708 37.5635 218.116 37.5952 218.505 37.7012C218.895 37.8071 219.258 37.9853 219.574 38.2251C219.89 38.465 220.152 38.7617 220.345 39.0981C220.538 39.4345 220.658 39.8038 220.698 40.1844V40.3925C219.679 39.8836 218.543 39.6197 217.39 39.6243C214.353 39.6243 211.283 41.2247 211.283 44.1214C211.313 44.739 211.474 45.3447 211.756 45.9027C212.039 46.4606 212.437 46.9595 212.927 47.3698C213.417 47.7801 213.99 48.0935 214.611 48.2915C215.231 48.4895 215.888 48.568 216.542 48.5224C217.34 48.5765 218.14 48.4268 218.856 48.0889C219.573 47.751 220.179 47.2373 220.613 46.602H220.715V48.2023H223.768V40.5045C223.768 36.9997 220.952 34.9672 217.339 34.9672L217.254 34.9192ZM216.864 45.8818C215.829 45.8818 214.387 45.3857 214.387 44.1854C214.387 42.585 216.185 42.0569 217.78 42.0569C218.788 42.0334 219.784 42.2655 220.664 42.729C220.558 43.5955 220.123 44.3966 219.441 44.9847C218.758 45.5729 217.873 45.9085 216.949 45.9298L216.864 45.8818ZM234.896 35.3993L231.266 44.0734H231.164L227.398 35.3993H224.005L229.654 47.5302L226.431 54.2678H229.739L238.424 35.3993H234.896ZM206.381 48.2023H209.553V28.1976H206.381V48.2023Z" fill="white"/>
<path d="M96.4249 23.0284H95.1696V19.8276H96.2383C96.7256 19.3405 97.0936 18.7583 97.3164 18.1223C97.5391 17.4863 97.6112 16.8119 97.5275 16.1468V11.3936H104.313V19.8116H105.449V23.0124H104.194V20.9959H96.4249V23.0284ZM98.7828 16.1948C98.862 17.4857 98.5249 18.769 97.8159 19.8756H102.905V12.5779H98.7828V16.1948ZM115.593 19.7476C114.602 20.678 113.26 21.2002 111.862 21.2002C110.463 21.2002 109.121 20.678 108.13 19.7476C107.166 18.785 106.629 17.511 106.629 16.1868C106.629 14.8626 107.166 13.5885 108.13 12.6259C108.618 12.1614 109.2 11.7927 109.84 11.5411C110.481 11.2896 111.168 11.16 111.862 11.16C112.555 11.16 113.242 11.2896 113.883 11.5411C114.523 11.7927 115.105 12.1614 115.593 12.6259C116.561 13.5867 117.101 14.8614 117.101 16.1868C117.101 17.5121 116.561 18.7869 115.593 19.7476ZM109.096 18.9474C109.831 19.6374 110.825 20.0248 111.862 20.0248C112.898 20.0248 113.892 19.6374 114.627 18.9474C115.351 18.1937 115.753 17.2124 115.753 16.1948C115.753 15.1771 115.351 14.1959 114.627 13.4421C113.892 12.7522 112.898 12.3648 111.862 12.3648C110.825 12.3648 109.831 12.7522 109.096 13.4421C108.372 14.1959 107.97 15.1771 107.97 16.1948C107.97 17.2124 108.372 18.1937 109.096 18.9474ZM123.685 21.204C122.985 21.2171 122.289 21.0964 121.639 20.8491C120.99 20.6018 120.4 20.233 119.905 19.765C119.411 19.297 119.022 18.7395 118.762 18.1259C118.502 17.5123 118.376 16.8554 118.392 16.1948C118.376 15.5341 118.502 14.8773 118.762 14.2637C119.022 13.6501 119.411 13.0925 119.905 12.6245C120.4 12.1565 120.99 11.7878 121.639 11.5405C122.289 11.2932 122.985 11.1725 123.685 11.1856C124.395 11.169 125.099 11.3044 125.746 11.5816C126.392 11.8588 126.963 12.2705 127.417 12.786L126.501 13.6182C126.166 13.2169 125.734 12.8971 125.241 12.6855C124.748 12.4739 124.209 12.3766 123.668 12.4019C123.147 12.3891 122.629 12.4761 122.145 12.6577C121.661 12.8392 121.221 13.1115 120.852 13.4581C120.117 14.2164 119.709 15.207 119.709 16.2348C119.709 17.2626 120.117 18.2532 120.852 19.0114C121.221 19.358 121.661 19.6303 122.145 19.8119C122.629 19.9934 123.147 20.0805 123.668 20.0677C124.265 20.0627 124.853 19.9322 125.39 19.6859C125.927 19.4395 126.399 19.0834 126.772 18.6434L127.688 19.5076C127.227 20.0359 126.647 20.462 125.992 20.7559C125.268 21.0653 124.48 21.2183 123.685 21.204ZM133.015 20.9959H131.709V12.5779H128.859V11.3936H135.848V12.5779H133.015V20.9959ZM144.838 11.3936L140.987 19.4916C140.833 19.9706 140.525 20.3926 140.106 20.6994C139.687 21.0061 139.177 21.1824 138.647 21.204C138.296 21.1998 137.95 21.129 137.629 20.9959L137.968 19.8596C138.174 19.9729 138.408 20.0336 138.647 20.0357C138.896 20.0534 139.145 19.9975 139.359 19.8756C139.563 19.7124 139.721 19.5033 139.817 19.2675L140.19 18.4993L136.798 11.4096H138.341L140.852 16.9149L143.294 11.3936H144.838ZM146.314 20.9959V11.3936H153.676V20.9959H152.37V12.5779H147.62V20.9959H146.314ZM156 20.9959V11.3936H157.306V15.5066H162.395V11.3936H163.701V20.9959H162.395V16.6589H157.306V20.9959H156ZM174.371 19.7476C173.38 20.678 172.038 21.2002 170.639 21.2002C169.241 21.2002 167.899 20.678 166.907 19.7476C165.943 18.785 165.406 17.511 165.406 16.1868C165.406 14.8626 165.943 13.5885 166.907 12.6259C167.396 12.1614 167.978 11.7927 168.618 11.5411C169.259 11.2896 169.945 11.16 170.639 11.16C171.333 11.16 172.02 11.2896 172.66 11.5411C173.301 11.7927 173.882 12.1614 174.371 12.6259C175.339 13.5867 175.879 14.8614 175.879 16.1868C175.879 17.5121 175.339 18.7869 174.371 19.7476ZM167.874 18.9474C168.609 19.6374 169.603 20.0248 170.639 20.0248C171.676 20.0248 172.67 19.6374 173.404 18.9474C174.129 18.1937 174.53 17.2124 174.53 16.1948C174.53 15.1771 174.129 14.1959 173.404 13.4421C172.67 12.7522 171.676 12.3648 170.639 12.3648C169.603 12.3648 168.609 12.7522 167.874 13.4421C167.15 14.1959 166.748 15.1771 166.748 16.1948C166.748 17.2124 167.15 18.1937 167.874 18.9474ZM181.207 20.9959V11.3936H184.888C185.653 11.38 186.393 11.6435 186.958 12.1298C187.241 12.3619 187.467 12.6499 187.62 12.9735C187.772 13.297 187.847 13.6482 187.84 14.0023C187.848 14.4289 187.718 14.8476 187.467 15.2025C187.218 15.5473 186.871 15.8191 186.466 15.9867C186.958 16.1404 187.39 16.4304 187.704 16.8189C188.031 17.211 188.204 17.6969 188.196 18.1953C188.205 18.5642 188.127 18.9304 187.969 19.2678C187.811 19.6053 187.576 19.9057 187.28 20.1477C186.69 20.6617 185.912 20.9424 185.109 20.9319L181.207 20.9959ZM182.514 15.5066H184.888C185.11 15.5153 185.331 15.4784 185.536 15.3982C185.742 15.318 185.926 15.1967 186.076 15.0425C186.226 14.914 186.347 14.7583 186.432 14.5847C186.517 14.411 186.564 14.223 186.571 14.0319C186.577 13.8407 186.543 13.6503 186.469 13.4719C186.396 13.2936 186.285 13.1311 186.144 12.994C186.002 12.8427 185.827 12.7227 185.63 12.6425C185.434 12.5623 185.221 12.5239 185.007 12.5299H182.581L182.514 15.5066ZM182.514 19.8116H185.143C185.373 19.8189 185.601 19.7782 185.812 19.6924C186.024 19.6067 186.212 19.478 186.364 19.3155C186.663 19.0228 186.833 18.6338 186.839 18.2273C186.839 17.8028 186.66 17.3957 186.342 17.0956C186.024 16.7955 185.593 16.6269 185.143 16.6269H182.564L182.514 19.8116Z" fill="white"/>
<path fill-rule="evenodd" clip-rule="evenodd" d="M111.862 11.3201C111.19 11.3201 110.525 11.4454 109.905 11.6889C109.286 11.9321 108.724 12.2884 108.251 12.7373C107.318 13.67 106.798 14.9041 106.798 16.1868C106.798 17.4693 107.318 18.7032 108.251 19.6359C109.211 20.5354 110.509 21.0402 111.862 21.0402C113.214 21.0402 114.512 20.5353 115.472 19.6358C116.409 18.7049 116.931 17.4704 116.931 16.1868C116.931 14.903 116.409 13.6683 115.472 12.7374C114.999 12.2885 114.437 11.9321 113.818 11.6889C113.198 11.4454 112.533 11.3201 111.862 11.3201ZM109.775 11.3934C110.436 11.1337 111.145 11 111.862 11C112.578 11 113.287 11.1337 113.948 11.3934C114.609 11.6531 115.209 12.0337 115.714 12.5132L115.716 12.5157C116.714 13.5062 117.27 14.8204 117.27 16.1868C117.27 17.5532 116.714 18.8674 115.716 19.8579L115.713 19.8611C114.69 20.8213 113.305 21.3603 111.862 21.3603C110.418 21.3603 109.033 20.8213 108.01 19.8611L108.006 19.8576C107.013 18.8653 106.459 17.5519 106.459 16.1868C106.459 14.8217 107.013 13.5083 108.006 12.516L108.009 12.5131C108.514 12.0336 109.114 11.6531 109.775 11.3934ZM170.639 11.3201C169.968 11.3201 169.303 11.4454 168.683 11.6889C168.064 11.9321 167.502 12.2884 167.029 12.7372C166.096 13.6699 165.576 14.9041 165.576 16.1868C165.576 17.4693 166.096 18.7032 167.029 19.6359C167.989 20.5354 169.286 21.0402 170.639 21.0402C171.992 21.0402 173.29 20.5353 174.25 19.6357C175.187 18.7048 175.709 17.4703 175.709 16.1868C175.709 14.9031 175.186 13.6683 174.25 12.7375C173.777 12.2885 173.215 11.9321 172.595 11.6889C171.975 11.4454 171.311 11.3201 170.639 11.3201ZM168.553 11.3934C169.214 11.1337 169.923 11 170.639 11C171.355 11 172.065 11.1337 172.726 11.3934C173.387 11.6531 173.987 12.0337 174.492 12.5132L174.494 12.5157C175.492 13.5062 176.048 14.8204 176.048 16.1868C176.048 17.5532 175.492 18.8674 174.494 19.8579L174.491 19.8611C173.467 20.8213 172.083 21.3603 170.639 21.3603C169.196 21.3603 167.811 20.8213 166.788 19.8611L166.784 19.8576C165.79 18.8653 165.237 17.5519 165.237 16.1868C165.237 14.8217 165.79 13.5083 166.784 12.516L166.787 12.5131C167.292 12.0336 167.892 11.6531 168.553 11.3934ZM125.675 11.7273C125.052 11.4601 124.373 11.3296 123.689 11.3456L123.682 11.3458C123.004 11.3331 122.331 11.4497 121.703 11.6889C121.074 11.9281 120.504 12.2848 120.026 12.7375C119.547 13.1902 119.171 13.7296 118.919 14.3231C118.668 14.9166 118.546 15.552 118.562 16.1911L118.562 16.1985C118.546 16.8375 118.668 17.4729 118.919 18.0665C119.171 18.66 119.547 19.1993 120.026 19.6521C120.504 20.1048 121.074 20.4615 121.703 20.7007C122.331 20.9399 123.004 21.0567 123.682 21.044L123.685 21.204L123.688 21.044C124.457 21.0579 125.22 20.9099 125.92 20.6107C126.507 20.3477 127.029 19.9752 127.458 19.5163L126.783 18.8801C126.416 19.276 125.967 19.5991 125.465 19.8298C124.905 20.0863 124.293 20.2223 123.671 20.2277C123.128 20.2408 122.587 20.15 122.083 19.9606C121.577 19.771 121.118 19.4867 120.732 19.1249L120.727 19.1196C119.963 18.3318 119.539 17.3026 119.539 16.2348C119.539 15.167 119.963 14.1378 120.727 13.3501L120.732 13.3446C121.118 12.9827 121.577 12.6985 122.083 12.509C122.586 12.3202 123.124 12.2293 123.666 12.2417C124.232 12.2163 124.796 12.3185 125.311 12.5398C125.772 12.7376 126.182 13.0254 126.515 13.3835L127.184 12.7756C126.764 12.3312 126.251 11.974 125.675 11.7273ZM123.685 21.364C122.963 21.3772 122.245 21.2525 121.576 20.9975C120.905 20.7421 120.296 20.3613 119.785 19.878C119.275 19.3947 118.873 18.8189 118.604 18.1853C118.336 17.5528 118.207 16.8758 118.223 16.1948C118.207 15.5138 118.336 14.8368 118.604 14.2043C118.873 13.5706 119.275 12.9948 119.785 12.5115C120.296 12.0282 120.905 11.6474 121.576 11.3921C122.245 11.1371 122.963 11.0125 123.684 11.0255C124.419 11.0089 125.147 11.1492 125.816 11.4359C126.486 11.7231 127.078 12.1497 127.547 12.6838L127.648 12.7981L126.483 13.8561L126.368 13.7172C126.049 13.336 125.639 13.0321 125.171 12.8311C124.702 12.6301 124.19 12.5377 123.676 12.5617L123.664 12.5623C123.166 12.5501 122.671 12.6328 122.208 12.8064C121.746 12.9795 121.327 13.2389 120.975 13.5689C120.269 14.2973 119.878 15.2482 119.878 16.2348C119.878 17.2214 120.269 18.1722 120.975 18.9006C121.327 19.2307 121.746 19.4901 122.208 19.6632C122.671 19.8367 123.166 19.9199 123.664 19.9077L123.666 19.9077C124.238 19.9028 124.802 19.7779 125.316 19.5419C125.83 19.306 126.283 18.9649 126.64 18.5434L126.758 18.4037L127.917 19.4972L127.819 19.6094C127.342 20.1558 126.743 20.5965 126.065 20.9004L126.062 20.9017C125.316 21.2205 124.504 21.3784 123.685 21.364ZM186.844 12.248C186.311 11.7893 185.613 11.5408 184.892 11.5537L184.888 11.5537H181.377V20.8331L185.106 20.7719L185.111 20.7719C185.871 20.7818 186.607 20.5163 187.165 20.0301L187.169 20.0268C187.445 19.8002 187.666 19.519 187.814 19.2031C187.962 18.8871 188.035 18.5442 188.027 18.1988L188.027 18.1929C188.034 17.7311 187.873 17.281 187.571 16.9177L187.57 16.9161C187.276 16.5531 186.872 16.2822 186.413 16.1387L185.993 16.0077L186.398 15.8402C186.773 15.6847 187.095 15.4328 187.326 15.1132C187.558 14.7854 187.678 14.3989 187.67 14.0051V13.9991C187.677 13.6686 187.607 13.3406 187.465 13.0385C187.322 12.7363 187.111 12.4674 186.847 12.2507L186.844 12.248ZM187.071 12.0103C186.475 11.4976 185.693 11.2196 184.887 11.2336H181.038V21.1588L185.107 21.0919L185.109 21.092C185.954 21.1024 186.772 20.8072 187.393 20.267C187.707 20.0098 187.956 19.6908 188.124 19.3326C188.292 18.9746 188.375 18.5861 188.366 18.1947L188.366 18.1976L188.196 18.1953L188.366 18.1917L188.366 18.1947C188.374 17.661 188.188 17.1409 187.838 16.7209C187.579 16.4009 187.245 16.1437 186.865 15.9679C187.158 15.794 187.411 15.5645 187.607 15.2927L187.608 15.2913C187.878 14.9101 188.018 14.4605 188.01 14.0024L188.01 14.0054L187.84 14.0023L188.01 13.9994L188.01 14.0024C188.017 13.6259 187.937 13.2525 187.775 12.9085C187.613 12.5641 187.372 12.2575 187.071 12.0103ZM97.3579 11.2336H104.482V19.6516H105.619V23.1724H104.024V21.156H96.5946V23.1884H95V19.6676H96.1644C96.6101 19.2079 96.9479 18.6642 97.1553 18.0721C97.3703 17.4583 97.4398 16.8075 97.3591 16.1656L97.3579 16.1562V11.2336ZM97.6972 11.5537V16.1374C97.7819 16.8227 97.7069 17.5173 97.4774 18.1725C97.2469 18.8308 96.866 19.4333 96.3617 19.9375L96.3115 19.9877H95.3393V22.8684H96.2553V20.8359H104.364V22.8524H105.28V19.9717H104.143V11.5537H97.6972ZM128.689 11.2336H136.017V12.738H133.184V21.156H131.539V12.738H128.689V11.2336ZM129.028 11.5537V12.4179H131.878V20.8359H132.845V12.4179H135.678V11.5537H129.028ZM143.181 11.2336H145.1L141.147 19.5479C140.981 20.0546 140.654 20.5009 140.21 20.8259C139.763 21.1529 139.219 21.3409 138.654 21.3639L138.644 21.3642C138.271 21.3598 137.902 21.2842 137.56 21.1424L137.425 21.0865L137.864 19.6174L138.053 19.7213C138.234 19.8206 138.439 19.8738 138.648 19.8757L138.659 19.8758C138.869 19.8907 139.078 19.8452 139.26 19.7451C139.437 19.6005 139.574 19.4167 139.659 19.2101L139.662 19.2007L140.004 18.4988L136.535 11.2496H138.453L140.849 16.5048L143.181 11.2336ZM143.407 11.5537L140.854 17.3251L138.229 11.5697H137.06L140.377 18.4998L139.973 19.3298C139.867 19.5887 139.693 19.8183 139.469 19.9978L139.458 20.0061L139.447 20.0127C139.204 20.1508 138.922 20.2146 138.639 20.1957C138.445 20.1933 138.254 20.1565 138.076 20.0878L137.833 20.9013C138.093 20.9917 138.367 21.04 138.644 21.0439C139.137 21.0229 139.612 20.8584 140.002 20.5729C140.394 20.2865 140.681 19.8924 140.825 19.4451L140.828 19.4353L144.576 11.5537H143.407ZM146.144 11.2336H153.846V21.156H152.2V12.738H147.79V21.156H146.144V11.2336ZM146.484 11.5537V20.8359H147.45V12.4179H152.539V20.8359H153.506V11.5537H146.484ZM155.83 11.2336H157.476V15.3466H162.225V11.2336H163.871V21.156H162.225V16.8189H157.476V21.156H155.83V11.2336ZM156.17 11.5537V20.8359H157.136V16.4989H162.565V20.8359H163.532V11.5537H162.565V15.6667H157.136V11.5537H156.17ZM108.977 13.3287C109.743 12.6089 110.78 12.2048 111.862 12.2048C112.943 12.2048 113.98 12.6089 114.746 13.3287L114.752 13.3345C115.505 14.1177 115.922 15.1374 115.922 16.1948C115.922 17.2522 115.505 18.2718 114.752 19.055L114.746 19.061C113.98 19.7808 112.943 20.1848 111.862 20.1848C110.78 20.1848 109.743 19.7807 108.977 19.0608L109.096 18.9474L108.971 19.055C108.218 18.2718 107.801 17.2522 107.801 16.1948C107.801 15.1374 108.218 14.1178 108.971 13.3346L108.977 13.3287ZM109.219 18.8369C109.922 19.4952 110.871 19.8647 111.862 19.8647C112.852 19.8647 113.801 19.4952 114.504 18.8369C115.198 18.113 115.583 17.1713 115.583 16.1948C115.583 15.2182 115.198 14.2766 114.504 13.5527C113.801 12.8944 112.852 12.5248 111.862 12.5248C110.871 12.5248 109.922 12.8944 109.219 13.5527C108.525 14.2766 108.14 15.2182 108.14 16.1948C108.14 17.1713 108.525 18.113 109.219 18.8369ZM167.755 13.3287C168.521 12.6089 169.558 12.2048 170.639 12.2048C171.721 12.2048 172.758 12.6089 173.524 13.3287L173.53 13.3345C174.283 14.1177 174.7 15.1374 174.7 16.1948C174.7 17.2522 174.283 18.2718 173.53 19.055L173.524 19.061C172.758 19.7808 171.721 20.1848 170.639 20.1848C169.558 20.1848 168.521 19.7807 167.755 19.0608L167.874 18.9474L167.749 19.055C166.996 18.2718 166.578 17.2522 166.578 16.1948C166.578 15.1374 166.996 14.1178 167.749 13.3346L167.755 13.3287ZM167.997 18.8369C168.699 19.4952 169.649 19.8647 170.639 19.8647C171.629 19.8647 172.579 19.4952 173.282 18.8369C173.976 18.113 174.361 17.1713 174.361 16.1948C174.361 15.2182 173.976 14.2766 173.282 13.5526C172.579 12.8944 171.629 12.5248 170.639 12.5248C169.649 12.5248 168.699 12.8944 167.997 13.5526C167.302 14.2766 166.918 15.2182 166.918 16.1948C166.918 17.1713 167.302 18.113 167.997 18.8369ZM185.005 12.3699C185.243 12.3635 185.479 12.4065 185.698 12.4957C185.916 12.5847 186.11 12.7177 186.268 12.8852C186.424 13.0371 186.546 13.2169 186.627 13.414C186.709 13.6124 186.747 13.8242 186.74 14.0368C186.733 14.2495 186.681 14.4586 186.586 14.6518C186.493 14.8428 186.36 15.0142 186.195 15.1562C186.029 15.3249 185.827 15.4579 185.601 15.546C185.375 15.6347 185.13 15.6758 184.885 15.6667H182.34L182.415 12.3699H185.005ZM185.563 12.7894C185.389 12.7185 185.201 12.6845 185.012 12.6899L185.007 12.6899H182.747L182.687 15.3466H184.896C185.093 15.3543 185.289 15.3216 185.472 15.2503C185.654 15.1791 185.817 15.0712 185.951 14.9342L185.956 14.9288L185.962 14.924C186.095 14.8099 186.203 14.6717 186.278 14.5176C186.354 14.3634 186.396 14.1966 186.401 14.0269C186.407 13.8572 186.376 13.6881 186.311 13.5299C186.246 13.3716 186.148 13.2273 186.022 13.1056L186.016 13.1001C185.891 12.9665 185.736 12.8603 185.563 12.7894ZM98.6132 12.4179H103.075V20.0357H97.5152L97.6707 19.7929C98.362 18.7139 98.6906 17.4627 98.6135 16.204L98.6129 16.1948L98.6132 12.4179ZM98.9524 12.738V16.1902C99.0268 17.4184 98.7336 18.6397 98.1092 19.7156H102.735V12.738H98.9524ZM182.397 16.4668H185.143C185.638 16.4668 186.112 16.6523 186.462 16.9825C186.812 17.3126 187.009 17.7604 187.009 18.2273L187.009 18.2295C187.002 18.6756 186.816 19.1026 186.489 19.4242C186.32 19.6031 186.112 19.7448 185.879 19.8394C185.646 19.9342 185.394 19.9793 185.14 19.9717H182.341L182.397 16.4668ZM182.732 16.7869L182.686 19.6516H185.149C185.353 19.6581 185.557 19.6219 185.745 19.5454C185.933 19.469 186.101 19.3543 186.237 19.2095L186.242 19.2043C186.511 18.9412 186.664 18.5915 186.67 18.2261C186.669 17.8445 186.508 17.4786 186.222 17.2088C185.936 16.9387 185.548 16.7869 185.143 16.7869H182.732Z" fill="white"/>
<path d="M42.8804 52.5208L63.6614 32.186L42.8978 11.8876C42.3432 12.2036 42 12.9353 42 13.8931V50.5347C42.0074 51.4925 42.3382 52.1707 42.8804 52.5208Z" fill="white"/>
<path d="M64.4057 31.6244L70.5957 25.5665L45.3879 12.0408C44.9634 11.7994 44.4813 11.672 43.9902 11.6713L64.4032 31.622L64.4057 31.6244Z" fill="white"/>
<path d="M64.4056 32.7499L43.928 52.7881C44.4419 52.7965 44.9482 52.6652 45.3903 52.4089L70.6478 38.8467L64.4056 32.7499Z" fill="white"/>
<path d="M79.7277 30.4746L71.3392 25.9652L64.9801 32.1884L71.3865 38.4505L79.7252 33.9533C81.4984 32.9979 81.4984 31.4251 79.7277 30.4746Z" fill="white"/>
</svg>
