<svg width="110" height="60" viewBox="0 0 110 60" fill="none" xmlns="http://www.w3.org/2000/svg">
<g clip-path="url(#clip0_345_7028)">
<path fill-rule="evenodd" clip-rule="evenodd" d="M100.61 30C90.5684 12.066 71.8005 0 50.3049 0C28.8092 0 10.0413 12.066 -2.28882e-05 30C10.0413 47.934 28.8092 60 50.3049 60C71.8005 60 90.5684 47.934 100.61 30Z" fill="#FFD15C"/>
<path d="M17.486 27.4683H110V31.4683H17.486V27.4683Z" fill="white"/>
<path d="M79.6693 14.6666L93.191 28.1063L90.3454 30.9348L76.8237 17.495L79.6693 14.6666Z" fill="white"/>
<path d="M48.8179 14.6688L62.3396 28.1085L59.4939 30.9369L45.9722 17.4972L48.8179 14.6688Z" fill="white"/>
<path d="M49.4472 28.657L52.2928 31.4855L38.7712 44.9252L35.9255 42.0968L49.4472 28.657Z" fill="white"/>
<path d="M80.2987 28.6551L83.1444 31.4835L69.6227 44.9233L66.777 42.0948L80.2987 28.6551Z" fill="white"/>
</g>
<defs>
<clipPath id="clip0_345_7028">
<rect width="110" height="60" fill="white" transform="matrix(-1 0 0 1 110 0)"/>
</clipPath>
</defs>
</svg>
