<svg width="24" height="24" viewBox="0 0 24 24" fill="none" xmlns="http://www.w3.org/2000/svg">
<g clip-path="url(#clip0_347_7992)">
<circle cx="12" cy="12" r="12" transform="matrix(-1 0 0 1 24 0)" fill="#F35B5B"/>
<circle cx="3" cy="3" r="3" transform="matrix(-1 0 0 1 10 4)" fill="#1E1A1A"/>
<path fill-rule="evenodd" clip-rule="evenodd" d="M20.0453 12.2514C19.6319 12.2263 19.2764 12.5412 19.2513 12.9547C19.1767 14.1863 18.63 16.0495 17.2384 17.5454C15.873 19.0131 13.6367 20.1904 10.0394 20.0011C9.62575 19.9793 9.27278 20.297 9.25101 20.7106C9.22924 21.1242 9.54692 21.4772 9.96056 21.499C13.9632 21.7097 16.6436 20.387 18.3366 18.5671C20.0033 16.7755 20.6566 14.5638 20.7486 13.0454C20.7737 12.6319 20.4588 12.2765 20.0453 12.2514Z" fill="white"/>
</g>
<defs>
<clipPath id="clip0_347_7992">
<rect width="24" height="24" fill="white" transform="matrix(-1 0 0 1 24 0)"/>
</clipPath>
</defs>
</svg>
