<svg width="17" height="20" viewBox="0 0 17 20" fill="none" xmlns="http://www.w3.org/2000/svg">
<path fill-rule="evenodd" clip-rule="evenodd" d="M8.99738 0C4.5791 0 0.997375 4.00258 0.997375 8.5C0.997375 12.9622 3.5507 17.8124 7.53444 19.6744C8.46312 20.1085 9.53163 20.1085 10.4603 19.6744C14.4441 17.8124 16.9974 12.9622 16.9974 8.5C16.9974 4.00258 13.4157 0 8.99738 0ZM8.99738 10C10.1019 10 10.9974 9.10457 10.9974 8C10.9974 6.89543 10.1019 6 8.99738 6C7.89281 6 6.99738 6.89543 6.99738 8C6.99738 9.10457 7.89281 10 8.99738 10Z" fill="white"/>
</svg>
