<svg width="142" height="23" viewBox="0 0 142 23" fill="none" xmlns="http://www.w3.org/2000/svg">
<g opacity="0.2" clip-path="url(#clip0_226_1741)">
<path fill-rule="evenodd" clip-rule="evenodd" d="M92.6859 0.593568H81.0689C81.0424 0.589851 81.0155 0.592493 80.9903 0.601283C80.965 0.610074 80.9421 0.624766 80.9233 0.644206C80.9046 0.663645 80.8905 0.687293 80.8822 0.71327C80.874 0.739248 80.8717 0.766845 80.8757 0.793867C80.5512 6.14571 79.5828 11.9617 78.1634 16.6564V16.8543C78.1889 16.8792 78.2194 16.898 78.2528 16.9094C78.2862 16.9208 78.3217 16.9245 78.3566 16.9202H82.3594C82.4238 16.9202 82.5526 16.8543 82.5526 16.7883C83.7346 12.7373 84.513 8.57417 84.876 4.36258H88.6927V16.7224C88.6892 16.7492 88.6917 16.7765 88.7002 16.8022C88.7086 16.8279 88.7228 16.8512 88.7415 16.8703C88.7602 16.8895 88.7829 16.9039 88.808 16.9126C88.8331 16.9213 88.8597 16.9239 88.8859 16.9202H92.7026C92.7288 16.9239 92.7555 16.9213 92.7806 16.9126C92.8056 16.9039 92.8284 16.8895 92.8471 16.8703C92.8658 16.8512 92.8799 16.8279 92.8884 16.8022C92.8968 16.7765 92.8994 16.7492 92.8959 16.7224V0.859816C92.8959 0.72547 92.8314 0.593568 92.7026 0.593568H92.6859ZM141.804 0.593568H137.988C137.961 0.589851 137.934 0.592493 137.909 0.601283C137.884 0.610074 137.861 0.624766 137.842 0.644206C137.823 0.663645 137.809 0.687293 137.801 0.71327C137.793 0.739248 137.791 0.766845 137.794 0.793867V13.0853C136.955 13.3305 136.084 13.4425 135.211 13.4175C132.694 13.4175 132.11 12.6236 132.11 9.18681V0.859816C132.114 0.832794 132.112 0.805197 132.103 0.779219C132.095 0.753242 132.081 0.729601 132.062 0.710162C132.044 0.690723 132.021 0.676023 131.995 0.667232C131.97 0.658442 131.943 0.6558 131.917 0.659517H128.1C128.074 0.6558 128.047 0.658442 128.021 0.667232C127.996 0.676023 127.973 0.690723 127.955 0.710162C127.936 0.729601 127.922 0.753242 127.913 0.779219C127.905 0.805197 127.903 0.832794 127.907 0.859816V9.71443C127.907 15.2666 129.715 17.4479 134.426 17.4479C136.956 17.3928 139.462 16.9244 141.847 16.0604C141.914 16.0604 141.979 15.9285 141.979 15.8626V0.859816C141.979 0.727913 141.912 0.593568 141.783 0.593568H141.804ZM61.4463 0.659517H57.5748C57.4459 0.659517 57.3815 0.727916 57.3815 0.793867C56.4509 4.4805 55.2859 8.1009 53.894 11.6319L50.0225 0.727911C50.0225 0.659517 49.8937 0.593568 49.8293 0.593568H45.9553C45.8909 0.593568 45.8265 0.659517 45.7621 0.659517C45.7472 0.671395 45.7352 0.686591 45.7269 0.703945C45.7187 0.721299 45.7144 0.740355 45.7144 0.759666C45.7144 0.778978 45.7187 0.798034 45.7269 0.815388C45.7352 0.832742 45.7472 0.847938 45.7621 0.859816L51.5706 17.1181C50.991 18.3736 50.4089 19.4313 49.9008 20.423C49.512 21.1558 49.1256 21.8886 48.7391 22.6702C48.6747 22.7362 48.7391 22.8021 48.7391 22.8681C48.8035 22.9341 48.8679 23 48.9323 23H53.1283C53.1927 23 53.2571 22.9341 53.3215 22.8681C54.0372 21.4807 54.9341 19.4972 55.7738 17.5138C58.0434 12.0981 60.0254 6.56064 61.7111 0.925765C61.7153 0.889962 61.7117 0.853659 61.7006 0.819451C61.6894 0.785242 61.671 0.753977 61.6467 0.727911C61.6214 0.70256 61.591 0.683273 61.5576 0.671444C61.5242 0.659615 61.4886 0.655541 61.4535 0.659517H61.4463ZM75.2604 13.1512C75.2601 13.1172 75.2479 13.0845 75.226 13.0589C75.2041 13.0333 75.174 13.0167 75.1411 13.012H74.9479C73.6947 13.4204 72.391 13.6433 71.0763 13.674C68.4285 13.674 67.2024 12.9412 67.2024 8.78866C67.2024 5.48375 67.5912 3.90336 71.0763 3.90336C72.1317 3.90026 73.1801 4.07946 74.1774 4.43342C74.3062 4.43342 74.3706 4.43341 74.435 4.30151C74.8858 3.4417 75.4035 2.44998 75.9831 1.12606V0.92821C75.9809 0.89398 75.9666 0.861748 75.9429 0.83749C75.9192 0.813232 75.8878 0.798594 75.8543 0.796305C74.2262 0.26938 72.5286 0.00163863 70.8211 0.00244321C65.2702 0.00244321 62.8155 2.64539 62.8155 8.6592C62.8155 14.7414 65.2702 17.4527 70.8211 17.4527C72.176 17.4527 74.9502 17.123 76.2408 16.5929C76.372 16.527 76.372 16.461 76.372 16.3291L75.2747 13.1537L75.2604 13.1512ZM111.34 0.659517H107.468C107.402 0.659517 107.273 0.727916 107.273 0.793867C106.344 4.48085 105.18 8.10134 103.788 11.6319L99.9162 0.725473C99.9162 0.659522 99.7874 0.593568 99.723 0.593568H95.849C95.7846 0.593568 95.7202 0.659517 95.6558 0.659517C95.6409 0.671395 95.6289 0.686591 95.6206 0.703945C95.6124 0.721299 95.6081 0.740355 95.6081 0.759666C95.6081 0.778978 95.6124 0.798034 95.6206 0.815388C95.6289 0.832742 95.6409 0.847938 95.6558 0.859816L101.464 17.1181C100.885 18.3736 100.303 19.3653 99.7945 20.423C99.4057 21.1558 99.0193 21.8886 98.6328 22.6702C98.5684 22.7362 98.6328 22.8021 98.6328 22.8681C98.6972 22.9341 98.7616 23 98.826 23H103.022C103.086 23 103.151 22.9341 103.215 22.8681C103.931 21.4807 104.828 19.4972 105.667 17.5138C108.12 11.566 110.121 6.01381 111.54 0.925765C111.545 0.889962 111.541 0.853659 111.53 0.819451C111.519 0.785242 111.5 0.753977 111.476 0.727911C111.476 0.659517 111.412 0.659517 111.347 0.659517H111.34ZM125.54 0.593568H114.31C114.283 0.58995 114.256 0.592638 114.231 0.601425C114.206 0.610212 114.183 0.624863 114.164 0.644235C114.145 0.663608 114.131 0.687179 114.122 0.713129C114.113 0.739079 114.111 0.76671 114.114 0.793867V16.7224C114.111 16.7495 114.113 16.777 114.122 16.8029C114.13 16.8288 114.145 16.8522 114.164 16.8714C114.183 16.8906 114.206 16.905 114.231 16.9135C114.257 16.922 114.283 16.9243 114.31 16.9202H118.127C118.153 16.9239 118.179 16.9213 118.205 16.9126C118.23 16.9039 118.252 16.8895 118.271 16.8703C118.29 16.8512 118.304 16.8279 118.312 16.8022C118.321 16.7765 118.323 16.7492 118.32 16.7224V4.42853H124.186C124.25 4.42853 124.379 4.36258 124.379 4.29663C124.83 3.23896 125.283 2.04938 125.734 0.925765V0.727911C125.669 0.659517 125.605 0.593568 125.54 0.593568Z" fill="white"/>
<path fill-rule="evenodd" clip-rule="evenodd" d="M20.2022 13.8132C17.6856 13.8132 16.9103 13.0804 16.9103 8.79106C16.9103 4.16468 17.75 3.76653 20.2022 3.76653C22.6544 3.76653 23.5585 4.16468 23.5585 8.79106C23.5585 13.1512 22.7188 13.8132 20.2022 13.8132ZM20.2022 0.134308C14.7157 0.134308 12.5855 2.51345 12.5855 8.72755C12.5855 15.0052 14.7157 17.4503 20.2022 17.4503C25.6887 17.4503 27.8833 15.0076 27.8833 8.72755C27.8833 2.5794 25.6887 0.134308 20.2022 0.134308ZM42.9878 13.1536C42.9855 13.119 42.9709 13.0865 42.9467 13.0621C42.9225 13.0378 42.8905 13.0235 42.8566 13.0217H42.6634C41.4103 13.4303 40.1066 13.6532 38.7919 13.6837C36.144 13.6837 34.9179 12.9509 34.9179 8.79839C34.9179 5.49349 35.3067 3.91309 38.7919 3.91309C39.8473 3.90999 40.8957 4.0892 41.8929 4.44315C41.9438 4.44994 41.9955 4.44101 42.0414 4.41751C42.0873 4.394 42.1253 4.357 42.1505 4.31124C42.6014 3.45143 43.119 2.45971 43.6987 1.1358V0.937943C43.6965 0.903713 43.6822 0.871474 43.6585 0.847216C43.6348 0.822957 43.6033 0.808327 43.5699 0.806038C41.955 0.326252 40.2825 0.0796077 38.601 0.0732422C33.0501 0.0732422 30.5955 2.71619 30.5955 8.73C30.5955 14.8122 33.0501 17.5235 38.601 17.5235C39.956 17.5235 42.7302 17.1938 44.0231 16.6637C44.1519 16.5978 44.1519 16.5318 44.1519 16.3999L42.9902 13.161L42.9878 13.1536ZM11.4238 0.593528H0.193183C0.0643692 0.593528 -3.74231e-05 0.727873 -3.74231e-05 0.859776V16.7883C-0.00358186 16.8151 -0.00102604 16.8425 0.00743083 16.8681C0.0158877 16.8938 0.0300171 16.9171 0.0487178 16.9362C0.0674185 16.9554 0.0901853 16.9698 0.115243 16.9785C0.140302 16.9872 0.166974 16.9898 0.193183 16.9862H4.00987C4.03608 16.9898 4.06276 16.9872 4.08781 16.9785C4.11287 16.9698 4.13564 16.9554 4.15434 16.9362C4.17304 16.9171 4.18717 16.8938 4.19563 16.8681C4.20408 16.8425 4.20664 16.8151 4.20309 16.7883V4.42849H10.0689C10.1333 4.42849 10.1977 4.36254 10.2621 4.29659C10.7153 3.23892 11.1662 2.04934 11.617 0.925725V0.727871C11.5526 0.659477 11.4882 0.593528 11.4238 0.593528Z" fill="white"/>
</g>
<defs>
<clipPath id="clip0_226_1741">
<rect width="142" height="23" fill="white"/>
</clipPath>
</defs>
</svg>
