<svg width="157" height="55" viewBox="0 0 157 55" fill="none" xmlns="http://www.w3.org/2000/svg">
<g clip-path="url(#clip0_353_6931)">
<path d="M29.8584 0.674599C29.8316 0.661507 29.8058 0.646687 29.7809 0.630212C29.1291 0.218438 28.375 0 27.6053 0C26.8356 0 26.0816 0.218438 25.4298 0.630212C25.4039 0.646454 25.3781 0.660522 25.3523 0.674599L0.574976 13.1458C0.40406 13.2317 0.260341 13.3639 0.159943 13.5274C0.0595444 13.6909 0.0064366 13.8794 0.00659214 14.0716V18.1453C0.00659214 18.4198 0.115015 18.6831 0.308011 18.8773C0.501007 19.0714 0.762774 19.1805 1.03571 19.1805H29.5473C29.7965 17.6593 29.9293 16.1211 29.9445 14.5794C29.9906 10.2998 31.1953 6.11366 33.4291 2.47105L29.8584 0.674599Z" fill="#1E1A1A"/>
<path d="M55.22 18.1443C55.2203 18.2804 55.1939 18.4152 55.1423 18.541C55.0907 18.6668 55.0149 18.7811 54.9193 18.8773C54.8237 18.9736 54.7102 19.05 54.5852 19.102C54.4602 19.154 54.3262 19.1807 54.1909 19.1806H29.5471C29.7963 17.6594 29.9291 16.1212 29.9443 14.5796C29.9904 10.2999 31.1951 6.1138 33.4289 2.47119L54.6474 13.147C54.8181 13.2328 54.9617 13.3648 55.0621 13.5282C55.1625 13.6915 55.2157 13.8797 55.2157 14.0717L55.22 18.1443Z" fill="white"/>
<path d="M50.8637 23.7012H47.1617C46.5933 23.7012 46.1326 24.1646 46.1326 24.7364V43.6505C46.1326 44.2222 46.5933 44.6857 47.1617 44.6857H50.8637C51.4321 44.6857 51.8928 44.2222 51.8928 43.6505V24.7364C51.8928 24.1646 51.4321 23.7012 50.8637 23.7012Z" fill="white"/>
<path d="M9.1674 23.7012H5.46539C4.89703 23.7012 4.43628 24.1646 4.43628 24.7364V43.6505C4.43628 44.2222 4.89703 44.6857 5.46539 44.6857H9.1674C9.73576 44.6857 10.1965 44.2222 10.1965 43.6505V24.7364C10.1965 24.1646 9.73576 23.7012 9.1674 23.7012Z" fill="#1E1A1A"/>
<path d="M55.221 50.2408V53.9647C55.221 54.2392 55.1126 54.5025 54.9196 54.6967C54.7266 54.8908 54.4649 54.9999 54.1919 54.9999H14.6917C14.6443 53.0589 14.7885 51.1179 15.1222 49.2056H54.1984C54.4702 49.2073 54.7303 49.3171 54.9219 49.5111C55.1135 49.705 55.2211 49.9673 55.221 50.2408Z" fill="white"/>
<path d="M14.6918 54.9999H1.02912C0.756182 54.9999 0.494415 54.8908 0.301419 54.6967C0.108423 54.5025 0 54.2392 0 53.9647V50.2408C0 49.9662 0.108423 49.7029 0.301419 49.5088C0.494415 49.3146 0.756182 49.2056 1.02912 49.2056H15.1202C14.7872 51.118 14.6437 53.0589 14.6918 54.9999Z" fill="#1E1A1A"/>
<path d="M27.5556 25.2911C26.8099 24.0769 25.7675 23.075 24.5278 22.3808C23.2881 21.6867 21.8923 21.3235 20.4734 21.3257H15.6078C15.2677 21.3257 14.9416 21.4616 14.7012 21.7034C14.4608 21.9453 14.3257 22.2733 14.3257 22.6154V45.2469C14.3257 45.5889 14.4608 45.9169 14.7012 46.1588C14.9416 46.4007 15.2677 46.5365 15.6078 46.5365H15.7079C16.8342 42.2978 18.897 38.3695 21.7426 35.0443V24.0144C23.0275 24.2874 24.1787 24.9999 25 26.0307C25.6648 26.828 26.0924 27.7979 26.2337 28.8287C27.0107 27.4082 27.672 25.9267 28.2112 24.3988C27.9741 24.682 27.7551 24.98 27.5556 25.2911Z" fill="#1E1A1A"/>
<path d="M21.7428 35.0386V45.2412C21.7425 45.5833 21.6071 45.9113 21.3665 46.1532C21.1259 46.395 20.7997 46.5308 20.4596 46.5308H15.708C16.8343 42.2921 18.8971 38.3638 21.7428 35.0386Z" fill="white"/>
<path d="M40.7198 22.6153V45.2468C40.7195 45.589 40.5842 45.917 40.3436 46.1588C40.103 46.4007 39.7768 46.5365 39.4367 46.5365H34.585C34.2449 46.5365 33.9188 46.4006 33.6784 46.1588C33.438 45.9169 33.3029 45.5889 33.3029 45.2468V24.023C32.0325 24.3412 30.9033 25.075 30.0929 26.1092C29.2824 27.1434 28.8367 28.4193 28.8258 29.7361V34.923C28.8258 35.1338 28.7426 35.3359 28.5944 35.485C28.4462 35.6341 28.2452 35.7178 28.0357 35.7178H27.0765C26.867 35.7178 26.666 35.6341 26.5178 35.485C26.3696 35.3359 26.2864 35.1338 26.2864 34.923V29.6322C26.2869 29.3653 26.2693 29.0986 26.2336 28.8341C27.0106 27.4136 27.672 25.9321 28.2111 24.4042C28.8814 23.6007 29.6893 22.9244 30.5966 22.4074C31.8256 21.6953 33.2205 21.3242 34.6388 21.3322H39.4367C39.7757 21.3321 40.1009 21.4671 40.3413 21.7075C40.5818 21.948 40.7178 22.2743 40.7198 22.6153Z" fill="white"/>
<path d="M71.898 19.5855V30.1097H69.2821V22.2168H69.1745L66.6717 24.7344L64.1678 22.2168H64.0601V30.1097H61.4443V19.5855H65.255L66.676 21.0148L68.0958 19.5855H71.898Z" fill="white"/>
<path d="M84.0557 19.5855V34.0556H74.9057V31.4253H81.4442V29.4004C80.6499 29.8637 79.7483 30.1083 78.8301 30.1096C77.912 30.1109 77.0098 29.8688 76.2142 29.4077C75.4187 28.9465 74.758 28.2827 74.2986 27.483C73.8393 26.6833 73.5975 25.776 73.5977 24.8524V19.5898H76.2136V24.8524C76.2275 25.5409 76.5091 26.1965 76.9981 26.6785C77.487 27.1604 78.1443 27.4304 78.8289 27.4304C79.5134 27.4304 80.1707 27.1604 80.6597 26.6785C81.1486 26.1965 81.4303 25.5409 81.4442 24.8524V19.5898L84.0557 19.5855Z" fill="white"/>
<path d="M96.2134 23.5325V30.1097H85.7512V27.4783H93.5976V26.167H88.367V23.5368C88.918 23.5368 89.4628 23.4196 89.9655 23.1929C90.4683 22.9661 90.9177 22.635 91.2842 22.2211H85.7512V19.5898H94.9012C94.9011 21.0145 94.4389 22.4003 93.5847 23.5368L96.2134 23.5325Z" fill="white"/>
<path d="M108.37 24.8481C108.37 26.2436 107.819 27.5819 106.838 28.5686C105.857 29.5553 104.527 30.1097 103.139 30.1097C101.752 30.1097 100.422 29.5553 99.4409 28.5686C98.4599 27.5819 97.9089 26.2436 97.9089 24.8481V19.5855H107.059V22.2168H100.519V23.5325H103.135V26.167H100.869C101.157 26.6689 101.601 27.0612 102.133 27.2831C102.665 27.505 103.255 27.544 103.812 27.3942C104.368 27.2444 104.86 26.9141 105.21 26.4545C105.561 25.9949 105.751 25.4318 105.751 24.8524L108.37 24.8481Z" fill="white"/>
<path d="M120.528 19.5855V30.1097H117.912V29.4004C117.118 29.8637 116.216 30.1083 115.298 30.1096C114.38 30.1109 113.478 29.8688 112.682 29.4077C111.887 28.9465 111.226 28.2827 110.766 27.483C110.307 26.6833 110.065 25.776 110.066 24.8524V19.5898H112.684V24.8524C112.697 25.5409 112.979 26.1965 113.468 26.6785C113.957 27.1604 114.614 27.4304 115.299 27.4304C115.983 27.4304 116.641 27.1604 117.13 26.6785C117.619 26.1965 117.9 25.5409 117.914 24.8524V19.5898L120.528 19.5855Z" fill="white"/>
<path d="M69.2036 45.8878H71.8603C71.694 47.2157 71.0308 48.43 70.0058 49.2833C68.9808 50.1367 67.671 50.5651 66.3431 50.4812C65.0152 50.3974 63.769 49.8077 62.8581 48.8321C61.9472 47.8565 61.4401 46.5684 61.4401 45.23C61.4401 43.8916 61.9472 42.6035 62.8581 41.6279C63.769 40.6524 65.0152 40.0626 66.3431 39.9788C67.671 39.895 68.9808 40.3233 70.0058 41.1767C71.0308 42.0301 71.694 43.2443 71.8603 44.5722H69.2036C69.0444 43.9518 68.6657 43.4111 68.1386 43.0514C67.6114 42.6918 66.972 42.5379 66.3401 42.6186C65.7082 42.6993 65.1272 43.009 64.7061 43.4898C64.2851 43.9705 64.0527 44.5893 64.0527 45.23C64.0527 45.8707 64.2851 46.4895 64.7061 46.9702C65.1272 47.451 65.7082 47.7607 66.3401 47.8414C66.972 47.9221 67.6114 47.7682 68.1386 47.4086C68.6657 47.0489 69.0444 46.5082 69.2036 45.8878Z" fill="white"/>
<path d="M84.0557 45.2305C84.036 46.6131 83.4762 47.9322 82.4973 48.9029C81.5184 49.8735 80.1991 50.4177 78.8246 50.4177C77.4501 50.4177 76.1307 49.8735 75.1518 48.9029C74.173 47.9322 73.6132 46.6131 73.5934 45.2305V39.969H82.7435V42.5992H76.205V43.9149H78.8197V46.5462H76.5591C76.8471 47.0476 77.2916 47.4394 77.8235 47.6609C78.3554 47.8824 78.9451 47.9212 79.5011 47.7714C80.0572 47.6215 80.5486 47.2912 80.8991 46.8319C81.2496 46.3725 81.4397 45.8096 81.4399 45.2305H84.0557Z" fill="white"/>
<path d="M96.2135 39.969V50.4921H93.5976V42.5992H93.49L90.9818 45.1168L88.479 42.5992H88.3713V50.4921H85.7555V39.969H89.5662L90.9861 41.3973L92.407 39.969H96.2135Z" fill="white"/>
<path d="M108.37 45.2305C108.37 46.626 107.819 47.9643 106.838 48.951C105.857 49.9378 104.527 50.4921 103.139 50.4921C101.752 50.4921 100.422 49.9378 99.4409 48.951C98.4599 47.9643 97.9089 46.626 97.9089 45.2305V39.969H107.059V42.5992H100.519V43.9149H103.135V46.5462H100.869C101.157 47.0481 101.601 47.4405 102.134 47.6624C102.666 47.8842 103.256 47.9232 103.812 47.7733C104.369 47.6233 104.86 47.2928 105.211 46.833C105.561 46.3733 105.751 45.81 105.751 45.2305H108.37Z" fill="white"/>
<path d="M120.528 39.969V50.4921H117.912V46.5462H112.684V50.4921H110.068V39.969H112.684V43.9149H117.914V39.969H120.528Z" fill="white"/>
<path d="M132.686 45.2305C132.686 46.2714 132.379 47.289 131.804 48.1546C131.23 49.0202 130.413 49.6949 129.457 50.0934C128.501 50.4918 127.449 50.5962 126.434 50.3933C125.419 50.1903 124.487 49.6892 123.755 48.9533C123.023 48.2173 122.525 47.2796 122.323 46.2587C122.121 45.2378 122.224 44.1796 122.62 43.2179C123.016 42.2563 123.687 41.4343 124.547 40.856C125.408 40.2777 126.419 39.969 127.454 39.969C128.841 39.969 130.172 40.5233 131.153 41.51C132.134 42.4967 132.685 43.835 132.686 45.2305ZM130.07 45.2305C130.07 44.7101 129.916 44.2014 129.629 43.7687C129.341 43.3359 128.933 42.9987 128.455 42.7995C127.977 42.6004 127.451 42.5483 126.944 42.6498C126.436 42.7513 125.97 43.0019 125.604 43.3699C125.238 43.7379 124.989 44.2068 124.888 44.7172C124.787 45.2276 124.839 45.7567 125.037 46.2375C125.235 46.7183 125.57 47.1293 126.001 47.4184C126.431 47.7075 126.937 47.8619 127.454 47.8619C128.148 47.8619 128.813 47.5846 129.304 47.0912C129.794 46.5977 130.07 45.9284 130.07 45.2305Z" fill="white"/>
<path d="M144.843 43.9149V50.4921H134.381V39.969H140.266C141.133 39.969 141.965 40.3155 142.578 40.9322C143.191 41.5489 143.535 42.3854 143.535 43.2576C143.536 43.4784 143.513 43.6987 143.469 43.9149H144.843ZM136.997 43.9149H140.266C140.435 43.908 140.595 43.8357 140.712 43.7131C140.829 43.5904 140.894 43.427 140.894 43.257C140.894 43.0871 140.829 42.9237 140.712 42.8011C140.595 42.6784 140.435 42.6061 140.266 42.5992H136.997V43.9149ZM142.228 46.5462H136.997V47.8619H142.228V46.5462Z" fill="white"/>
<path d="M157 39.969V50.4921H154.385V49.7828C153.59 50.2463 152.688 50.491 151.769 50.4921C150.85 50.4932 149.947 50.2509 149.151 49.7894C148.355 49.3279 147.694 48.6635 147.234 47.8632C146.774 47.0629 146.532 46.1549 146.532 45.2305C146.532 44.3062 146.774 43.3982 147.234 42.5979C147.694 41.7976 148.355 41.1332 149.151 40.6717C149.947 40.2102 150.85 39.9678 151.769 39.969C152.688 39.9701 153.59 40.2148 154.385 40.6782V39.969H157ZM154.385 45.2305C154.385 44.7101 154.232 44.2014 153.944 43.7687C153.657 43.3359 153.248 42.9987 152.77 42.7995C152.292 42.6004 151.766 42.5483 151.259 42.6498C150.752 42.7513 150.286 43.0019 149.92 43.3699C149.554 43.7379 149.305 44.2068 149.204 44.7172C149.103 45.2276 149.155 45.7567 149.353 46.2375C149.551 46.7183 149.886 47.1293 150.316 47.4184C150.746 47.7075 151.252 47.8619 151.769 47.8619C152.463 47.8619 153.128 47.5846 153.619 47.0912C154.11 46.5977 154.385 45.9284 154.385 45.2305Z" fill="white"/>
</g>
<defs>
<clipPath id="clip0_353_6931">
<rect width="157" height="55" fill="white"/>
</clipPath>
</defs>
</svg>
