<svg width="21" height="20" viewBox="0 0 21 20" fill="none" xmlns="http://www.w3.org/2000/svg">
<path d="M10.9974 8.35C11.9086 8.35 12.6474 9.08873 12.6474 10C12.6474 10.9113 11.9086 11.65 10.9974 11.65C10.0861 11.65 9.34738 10.9113 9.34738 10C9.34738 9.08873 10.0861 8.35 10.9974 8.35Z" fill="white"/>
<path fill-rule="evenodd" clip-rule="evenodd" d="M10.9974 0C5.47453 0 0.997375 4.47715 0.997375 10C0.997375 15.5228 5.47453 20 10.9974 20C16.5202 20 20.9974 15.5228 20.9974 10C20.9974 4.47715 16.5202 0 10.9974 0ZM5.74738 10C5.74738 7.1005 8.09788 4.75 10.9974 4.75C13.8969 4.75 16.2474 7.1005 16.2474 10C16.2474 10.6327 16.1358 11.2376 15.9319 11.7973C15.8965 11.8944 15.8268 11.9989 15.7156 12.1015L15.6351 12.1758C15.3343 12.4533 14.8827 12.4888 14.5422 12.2618C14.2955 12.0974 14.1474 11.8206 14.1474 11.5241V10C14.1474 8.2603 12.7371 6.85 10.9974 6.85C9.25768 6.85 7.84738 8.2603 7.84738 10C7.84738 11.7397 9.25768 13.15 10.9974 13.15C11.6991 13.15 12.3473 12.9205 12.8709 12.5325C13.0531 12.9233 13.3405 13.2635 13.7101 13.5099C14.6267 14.121 15.8425 14.0252 16.6522 13.2783L16.7327 13.204C16.9828 12.9732 17.2083 12.6756 17.3413 12.3108C17.6043 11.5889 17.7474 10.8103 17.7474 10C17.7474 6.27208 14.7253 3.25 10.9974 3.25C7.26945 3.25 4.24738 6.27208 4.24738 10C4.24738 13.7279 7.26945 16.75 10.9974 16.75C11.4116 16.75 11.7474 16.4142 11.7474 16C11.7474 15.5858 11.4116 15.25 10.9974 15.25C8.09788 15.25 5.74738 12.8995 5.74738 10Z" fill="white"/>
</svg>
