<svg width="24" height="24" viewBox="0 0 24 24" fill="none" xmlns="http://www.w3.org/2000/svg">
<rect width="24" height="24" rx="12" fill="#F79A38"/>
<path d="M15.7426 13.6757C16.0575 13.3609 16.1024 12.9111 15.8326 12.4613C15.6077 12.1015 15.2029 11.9216 14.7532 12.0116C14.5732 12.0565 14.3933 12.1465 14.2134 12.2814C12.8192 13.2259 10.9301 13.181 9.53586 12.2364C9.44591 12.1915 9.35595 12.1465 9.266 12.1015C8.77126 11.8766 8.27652 11.9666 8.00666 12.4164C7.69183 12.8661 7.7368 13.3609 8.14159 13.7657C8.23154 13.8556 8.32149 13.9006 8.36647 13.9905L8.41145 14.0355C9.04112 14.5302 9.80573 14.8451 10.7952 14.98L10.2105 15.5647C9.71577 16.0595 9.17605 16.5992 8.68131 17.0939C8.54638 17.2288 8.36647 17.4537 8.36647 17.7686C8.36647 18.1734 8.59136 18.5781 8.99615 18.758C9.13108 18.848 9.266 18.848 9.40093 18.848C9.62582 18.848 9.89568 18.758 10.0756 18.5332C10.7502 17.8585 11.29 17.3188 11.8297 16.7791C11.8747 16.7341 11.8746 16.7341 11.8746 16.7341C11.8746 16.7341 11.9196 16.7341 11.9196 16.7791C12.2794 17.1839 12.6842 17.5437 13.044 17.9485C13.2239 18.1284 13.4039 18.3083 13.5838 18.4882C13.8086 18.7131 13.9885 18.803 14.2584 18.803C14.6632 18.848 15.113 18.5781 15.2929 18.1734C15.4728 17.8135 15.3828 17.3638 15.068 17.0939C14.6182 16.6442 14.1685 16.1494 13.6737 15.6996L12.9091 14.935C13.3139 14.8901 13.7637 14.8001 14.1685 14.6202C14.8431 14.3953 15.3378 14.0805 15.7426 13.6757Z" fill="white"/>
<path d="M11.8746 12.4163C13.8086 12.4163 15.3828 10.8871 15.3828 8.95314C15.3828 8.00863 15.023 7.10911 14.3484 6.43446C13.6737 5.75981 12.8192 5.39999 11.9196 5.39999C9.98563 5.39999 8.45643 6.97417 8.41145 8.86319C8.41145 9.8077 8.77126 10.6623 9.44591 11.3369C10.0756 12.0565 10.9301 12.4163 11.8746 12.4163ZM10.8852 7.91869C11.155 7.64883 11.5148 7.51389 11.8746 7.51389C12.6842 7.51389 13.2689 8.14357 13.2689 8.90817C13.2689 9.71775 12.6392 10.3024 11.8746 10.3024C11.0651 10.3024 10.4804 9.67277 10.4804 8.90817C10.4804 8.54836 10.6153 8.18855 10.8852 7.91869Z" fill="white"/>
<path d="M15.7426 13.6757C16.0575 13.3609 16.1024 12.9111 15.8326 12.4613C15.6077 12.1015 15.2029 11.9216 14.7532 12.0116C14.5732 12.0565 14.3933 12.1465 14.2134 12.2814C12.8192 13.2259 10.9301 13.181 9.53586 12.2364C9.44591 12.1915 9.35595 12.1465 9.266 12.1015C8.77126 11.8766 8.27652 11.9666 8.00666 12.4164C7.69183 12.8661 7.7368 13.3609 8.14159 13.7657C8.23154 13.8556 8.32149 13.9006 8.36647 13.9905L8.41145 14.0355C9.04112 14.5302 9.80573 14.8451 10.7952 14.98L10.2105 15.5647C9.71577 16.0595 9.17605 16.5992 8.68131 17.0939C8.54638 17.2288 8.36647 17.4537 8.36647 17.7686C8.36647 18.1734 8.59136 18.5781 8.99615 18.758C9.13108 18.848 9.266 18.848 9.40093 18.848C9.62582 18.848 9.89568 18.758 10.0756 18.5332C10.7502 17.8585 11.29 17.3188 11.8297 16.7791C11.8747 16.7341 11.8746 16.7341 11.8746 16.7341C11.8746 16.7341 11.9196 16.7341 11.9196 16.7791C12.2794 17.1839 12.6842 17.5437 13.044 17.9485C13.2239 18.1284 13.4039 18.3083 13.5838 18.4882C13.8086 18.7131 13.9885 18.803 14.2584 18.803C14.6632 18.848 15.113 18.5781 15.2929 18.1734C15.4728 17.8135 15.3828 17.3638 15.068 17.0939C14.6182 16.6442 14.1685 16.1494 13.6737 15.6996L12.9091 14.935C13.3139 14.8901 13.7637 14.8001 14.1685 14.6202C14.8431 14.3953 15.3378 14.0805 15.7426 13.6757Z" fill="white"/>
</svg>
