<svg width="17" height="16" viewBox="0 0 17 16" fill="none" xmlns="http://www.w3.org/2000/svg">
<path d="M7.03497 1.31617L7.68398 2.4791C8.26968 3.52858 8.03456 4.90532 7.11209 5.8278C7.11208 5.8278 7.11209 5.8278 7.11208 5.8278C7.11197 5.82792 5.99326 6.94685 8.02189 8.97548C10.0499 11.0035 11.1688 9.8861 11.1696 9.88529C11.1696 9.88527 11.1696 9.88528 11.1696 9.88525C12.0921 8.96281 13.4688 8.7277 14.5183 9.31339L15.6812 9.96241C17.2659 10.8468 17.4531 13.0692 16.0601 14.4622C15.2231 15.2992 14.1978 15.9505 13.0643 15.9934C11.1562 16.0658 7.91565 15.5829 4.66508 12.3323C1.4145 9.08172 0.93159 5.84122 1.00393 3.93309C1.0469 2.7996 1.69818 1.77423 2.53518 0.937232C3.92813 -0.455718 6.15055 -0.268563 7.03497 1.31617Z" fill="white"/>
</svg>
