<svg width="49" height="48" viewBox="0 0 49 48" fill="none" xmlns="http://www.w3.org/2000/svg">
<rect width="24" height="20" transform="translate(12.5 13.5)" fill="white"/>
<path d="M29.5395 10H20.3683C11.9924 10 10 11.8448 10 19.5865V28.0783C10 35.8324 11.9774 37.6786 20.3534 37.6786H29.5245C37.899 37.6786 39.8929 35.8476 39.8929 28.0921V19.6003C39.8929 11.8448 37.9154 10 29.5395 10ZM34.1325 29.7487H31.9518C31.1268 29.7487 30.8787 29.13 29.399 27.76C28.1076 26.6071 27.5621 26.4632 27.2347 26.4632C26.7833 26.4632 26.6593 26.5781 26.6593 27.1552V28.9709C26.6593 29.4622 26.4874 29.75 25.1019 29.75C23.7572 29.6664 22.4533 29.2881 21.2974 28.6464C20.1416 28.0047 19.1669 27.1179 18.4537 26.0591C16.7605 24.1078 15.5824 21.8176 15.013 19.3706C15.013 19.0675 15.1371 18.7935 15.7604 18.7935H17.9395C18.5 18.7935 18.7018 19.0246 18.9215 19.5574C19.9797 22.4415 21.7853 24.9492 22.5176 24.9492C22.7986 24.9492 22.9212 24.8343 22.9212 24.1853V21.2154C22.8285 19.8605 22.0513 19.7456 22.0513 19.2557C22.0613 19.1265 22.1252 19.006 22.2296 18.9197C22.334 18.8334 22.4705 18.7881 22.6103 18.7935H26.036C26.5038 18.7935 26.6593 19.0094 26.6593 19.5283V23.5362C26.6593 23.9694 26.8611 24.1133 27.0016 24.1133C27.2826 24.1133 27.4993 23.9694 28.0134 23.4933C29.1178 22.2463 30.02 20.857 30.6918 19.3692C30.7605 19.1905 30.8904 19.0375 31.0618 18.9335C31.2332 18.8296 31.4366 18.7804 31.6409 18.7935H33.8216C34.4748 18.7935 34.6138 19.0966 34.4748 19.5283C33.6819 21.1731 32.7007 22.7343 31.5483 24.1853C31.3136 24.5174 31.2194 24.6904 31.5483 25.0793C31.765 25.3824 32.5288 25.9733 33.0429 26.5352C33.7901 27.2253 34.4106 28.0237 34.8798 28.8989C35.0667 29.4608 34.7543 29.7487 34.1325 29.7487Z" fill="#5482F9"/>
</svg>
