<svg width="49" height="48" viewBox="0 0 49 48" fill="none" xmlns="http://www.w3.org/2000/svg">
<path d="M42.1614 15.228C41.9434 14.4108 41.5182 13.6658 40.9282 13.0672C40.3382 12.4685 39.6038 12.0371 38.7983 11.8159C35.8494 11 23.9811 11 23.9811 11C23.9811 11 12.1121 11.0247 9.16318 11.8406C8.35767 12.0618 7.62332 12.4932 7.03328 13.0919C6.44323 13.6906 6.01806 14.4357 5.80012 15.2529C4.90814 20.5687 4.56213 28.6688 5.82461 33.772C6.04258 34.5892 6.46775 35.3342 7.0578 35.9328C7.64785 36.5315 8.38218 36.9629 9.18767 37.1841C12.1366 38 24.0052 38 24.0052 38C24.0052 38 35.8738 38 38.8225 37.1841C39.628 36.9629 40.3624 36.5315 40.9525 35.9329C41.5426 35.3342 41.9678 34.5892 42.1857 33.772C43.1265 28.4486 43.4165 20.3535 42.1614 15.228Z" fill="#F35B5B"/>
<path d="M19.5464 29.5L29.5464 24L19.5464 18.5V29.5Z" fill="white"/>
</svg>
