<svg width="227" height="243" viewBox="0 0 227 243" fill="none" xmlns="http://www.w3.org/2000/svg">
<path fill-rule="evenodd" clip-rule="evenodd" d="M227 125.094H0V154.705C13.9007 156.861 24.5405 168.884 24.5405 183.392C24.5405 197.901 13.9007 209.923 0 212.079V241.691H227V212.079C213.099 209.923 202.459 197.901 202.459 183.392C202.459 168.884 213.099 156.861 227 154.705V125.094ZM162.345 165.69H64.6549V200.622H162.345V165.69Z" fill="#FFD15C"/>
<path fill-rule="evenodd" clip-rule="evenodd" d="M39.6982 104.796L144.467 1.52588e-05L165.401 20.9385C157.096 32.2947 158.071 48.3214 168.328 58.5804C178.584 68.8393 194.607 69.8152 205.96 61.508L226.893 82.4464L204.55 104.796H146.485L152.143 99.136L127.448 74.4355L97.0959 104.796H39.6982ZM65.0709 241.691L66.3799 243L67.689 241.691H65.0709Z" fill="#F35B5B"/>
</svg>
